<?xml version="1.0" encoding="iso-8859-1"?>
<!-- Generator: Adobe Illustrator 18.0.0, SVG Export Plug-In . SVG Version: 6.00 Build 0)  -->
<!DOCTYPE svg PUBLIC "-//W3C//DTD SVG 1.1//EN" "http://www.w3.org/Graphics/SVG/1.1/DTD/svg11.dtd">
<svg version="1.1" id="Capa_1" xmlns="http://www.w3.org/2000/svg" xmlns:xlink="http://www.w3.org/1999/xlink" x="0px" y="0px"
	 viewBox="0 0 323.432 323.432" style="enable-background:new 0 0 323.432 323.432;" xml:space="preserve">
<path style="fill:#231F20;" d="M297.716,53.275C297.716,18.3,229.299,0,161.716,0s-136,18.3-136,53.275
	c0,12.159,8.275,22.301,21.903,30.361l104.097,101.31v118.485h-47.554c-5.523,0-10,4.477-10,10c0,5.523,4.477,10,10,10H219.27
	c5.523,0,10-4.477,10-10c0-5.523-4.477-10-10-10h-47.554V184.945L276.028,83.511C289.529,75.471,297.716,65.371,297.716,53.275z
	 M75.869,32.133C98.649,24.309,129.137,20,161.716,20s63.067,4.309,85.847,12.133c20.83,7.154,30.153,15.773,30.153,21.142
	c0,5.369-9.323,13.988-30.153,21.142c-22.78,7.824-53.268,12.133-85.847,12.133s-63.067-4.309-85.847-12.133
	c-20.83-7.154-30.153-15.773-30.153-21.142C45.716,47.907,55.039,39.287,75.869,32.133z M161.715,166.776L92.72,99.743
	c21.058,4.513,45.077,6.808,68.996,6.808c23.919,0,47.938-2.295,68.996-6.808L161.715,166.776z"/>
<g>
</g>
<g>
</g>
<g>
</g>
<g>
</g>
<g>
</g>
<g>
</g>
<g>
</g>
<g>
</g>
<g>
</g>
<g>
</g>
<g>
</g>
<g>
</g>
<g>
</g>
<g>
</g>
<g>
</g>
</svg>
